PathFileType	4	(X/Y/Z)	RBDS001static.trc
DataRate	CameraRate	NumFrames	NumMarkers	Units	OrigDataRate	OrigDataStartFrame	OrigNumFrames
150.000000	150.000000	4	48	mm	150.000000	131	150
Frame#	Time	L.Ankle			L.Ankle.Medial			L.ASIS			L.GTR			L.Heel.Bottom			L.Heel.Lateral			L.Heel.Top			L.HF			L.Iliac.Crest			L.Knee			L.Knee.Medial			L.MT1			L.MT2			L.MT5			L.PSIS			L.Shank.Bottom.Lateral			L.Shank.Bottom.Medial			L.Shank.Top.Lateral			L.Shank.Top.Medial			L.Thigh.Bottom.Lateral			L.Thigh.Bottom.Medial			L.Thigh.Top.Lateral			L.Thigh.Top.Medial			L.TT			R.Ankle			R.Ankle.Medial			R.ASIS			R.GTR			R.Heel.Bottom			R.Heel.Lateral			R.Heel.Top			R.HF			R.Iliac.Crest			R.Knee			R.Knee.Medial			R.MT1			R.MT2			R.MT5			R.PSIS			R.Shank.Bottom.Lateral			R.Shank.Bottom.Medial			R.Shank.Top.Lateral			R.Shank.Top.Medial			R.Thigh.Bottom.Lateral			R.Thigh.Bottom.Medial			R.Thigh.Top.Lateral			R.Thigh.Top.Medial			R.TT			
		X1	Y1	Z1	X2	Y2	Z2	X3	Y3	Z3	X4	Y4	Z4	X5	Y5	Z5	X6	Y6	Z6	X7	Y7	Z7	X8	Y8	Z8	X9	Y9	Z9	X10	Y10	Z10	X11	Y11	Z11	X12	Y12	Z12	X13	Y13	Z13	X14	Y14	Z14	X15	Y15	Z15	X16	Y16	Z16	X17	Y17	Z17	X18	Y18	Z18	X19	Y19	Z19	X20	Y20	Z20	X21	Y21	Z21	X22	Y22	Z22	X23	Y23	Z23	X24	Y24	Z24	X25	Y25	Z25	X26	Y26	Z26	X27	Y27	Z27	X28	Y28	Z28	X29	Y29	Z29	X30	Y30	Z30	X31	Y31	Z31	X32	Y32	Z32	X33	Y33	Z33	X34	Y34	Z34	X35	Y35	Z35	X36	Y36	Z36	X37	Y37	Z37	X38	Y38	Z38	X39	Y39	Z39	X40	Y40	Z40	X41	Y41	Z41	X42	Y42	Z42	X43	Y43	Z43	X44	Y44	Z44	X45	Y45	Z45	X46	Y46	Z46	X47	Y47	Z47	X48	Y48	Z48	

132	0.8733333333333334	705.1095581054688	108.8260498046875	1050.991088867188	725.5884399414063	119.293830871582	1129.095703125	879.9163818359375	1066.962158203125	1126.942749023438	802.0416259765625	965.286376953125	1056.972045898438	633.3116455078125	43.05659866333008	1085.140502929688	663.4304809570313	60.40231704711914	1046.808837890625	641.836181640625	90.56504821777344	1088.86767578125	735.35791015625	490.4795837402344	1040.0302734375	818.6715087890625	1134.893432617188	1090.239624023438	752.973876953125	550.5537719726563	1052.378662109375	733.2797241210938	539.8629150390625	1162.294189453125	854.96826171875	62.79782485961914	1133.471069335938	861.0520629882813	69.66431427001953	1088.638671875	827.1062622070313	56.5728645324707	1026.712158203125	702.2421264648438	1099.058715820313	1181.77978515625	713.6398315429688	191.6860656738281	1043.626831054688	670.6956176757813	190.8455963134766	1071.953491210938	709.2965087890625	271.5068359375	1031.50390625	665.962158203125	274.9250793457031	1063.341430664063	744.5193481445313	675.5320434570313	1043.297729492188	691.3453979492188	678.3763427734375	1093.899658203125	742.6110229492188	786.2594604492188	1040.397094726563	697.750244140625	789.0005493164063	1093.322021484375	786.7182006835938	461.8472290039063	1092.030151367188	701.7670288085938	110.6614379882813	1397.583129882813	720.040771484375	116.6360244750977	1314.718383789063	858.2715454101563	1060.393920898438	1337.528930664063	764.1275024414063	966.5505981445313	1385.119262695313	627.5234375	42.59317398071289	1360.09326171875	658.3858032226563	58.95505142211914	1403.292602539063	638.951171875	90.76547241210938	1359.619262695313	732.3931884765625	491.4883117675781	1397.784912109375	795.2620239257813	1135.581420898438	1358.857421875	735.484375	553.2833251953125	1387.0625	731.9678344726563	540.0828857421875	1270.890258789063	850.191162109375	64.41295623779297	1319.660278320313	855.0806274414063	73.13311004638672	1362.043579101563	829.72802734375	56.36692428588867	1427.125	698.5073852539063	1097.8671875	1258.523559570313	702.371337890625	190.5533599853516	1400.773315429688	660.9758911132813	194.3765106201172	1364.871215820313	698.8396606445313	271.2817993164063	1410.7587890625	659.1237182617188	273.99072265625	1373.781372070313	735.3294677734375	651.1812744140625	1396.73046875	681.1212768554688	650.6054077148438	1346.0703125	727.6251220703125	761.77685546875	1399.172973632813	678.9661254882813	760.60498046875	1348.492065429688	781.712158203125	462.5046081542969	1343.855712890625	
133	0.88	705.1173095703125	108.8254699707031	1050.995849609375	725.599609375	119.3005218505859	1129.092529296875	879.9296264648438	1066.954467773438	1126.9375	802.0448608398438	965.2860107421875	1056.952880859375	633.3128051757813	43.05259323120117	1085.1240234375	663.4306640625	60.4093132019043	1046.799926757813	641.83447265625	90.55937194824219	1088.856689453125	735.3670654296875	490.4775695800781	1040.036743164063	818.68701171875	1134.887939453125	1090.2294921875	752.9775390625	550.5419311523438	1052.376953125	733.294189453125	539.8500366210938	1162.296264648438	854.9658813476563	62.79504013061523	1133.472534179688	861.0479125976563	69.66706085205078	1088.642211914063	827.1060180664063	56.57077026367188	1026.712768554688	702.2546997070313	1099.054931640625	1181.768432617188	713.6459350585938	191.6820526123047	1043.619873046875	670.6962280273438	190.8436737060547	1071.949462890625	709.2958374023438	271.5068969726563	1031.505981445313	665.9555053710938	274.921142578125	1063.337524414063	744.529296875	675.5286865234375	1043.296752929688	691.3458251953125	678.3723754882813	1093.912475585938	742.623779296875	786.2625122070313	1040.397094726563	697.75732421875	788.9981079101563	1093.319213867188	786.7254638671875	461.83935546875	1092.039184570313	702.06689453125	110.5066299438477	1397.331909179688	720.0498046875	116.6413955688477	1314.716186523438	858.2764282226563	1060.393310546875	1337.518920898438	764.1357421875	966.5481567382813	1385.103637695313	627.5264892578125	42.5958137512207	1360.090087890625	658.3886108398438	58.95551300048828	1403.284790039063	638.9515991210938	90.7686767578125	1359.628784179688	732.3963012695313	491.4928283691406	1397.775268554688	795.2734985351563	1135.576049804688	1358.843139648438	735.4937133789063	553.2904052734375	1387.058837890625	731.9717407226563	540.0819702148438	1270.890625	850.19189453125	64.41123199462891	1319.66064453125	855.0863037109375	73.13130187988281	1362.035278320313	829.7245483398438	56.37387084960938	1427.125610351563	698.5181274414063	1097.869750976563	1258.49658203125	702.3728637695313	190.5594024658203	1400.775634765625	660.9732666015625	194.3749237060547	1364.876586914063	698.8380126953125	271.292236328125	1410.756225585938	659.1244506835938	273.9852294921875	1373.762939453125	735.3319091796875	651.1768798828125	1396.72705078125	681.1261596679688	650.6104736328125	1346.057495117188	727.6337890625	761.7730712890625	1399.1728515625	678.9691162109375	760.6045532226563	1348.47802734375	781.7176513671875	462.5018615722656	1343.851806640625	
134	0.8866666666666667	705.1178588867188	108.8259963989258	1050.994384765625	725.597412109375	119.296875	1129.0849609375	879.9360961914063	1066.954833984375	1126.919067382813	802.0438842773438	965.2809448242188	1056.94775390625	633.3118896484375	43.06242370605469	1085.123657226563	663.4338989257813	60.40282821655273	1046.799682617188	641.83349609375	90.56129455566406	1088.866943359375	735.3685913085938	490.4699096679688	1040.025756835938	818.6973876953125	1134.87744140625	1090.21484375	752.9771118164063	550.5420532226563	1052.371215820313	733.3023681640625	539.8555908203125	1162.286376953125	854.9691772460938	62.79737854003906	1133.47705078125	861.055419921875	69.66911315917969	1088.64306640625	827.1044921875	56.58052062988281	1026.721923828125	702.2772216796875	1099.054931640625	1181.757934570313	713.6423950195313	191.6787719726563	1043.619262695313	670.6995849609375	190.8443908691406	1071.94775390625	709.2991333007813	271.4947814941406	1031.506469726563	665.9586791992188	274.9249877929688	1063.34423828125	744.5267333984375	675.5248413085938	1043.30029296875	691.3519897460938	678.36962890625	1093.902709960938	742.6201782226563	786.2611083984375	1040.396240234375	697.7601318359375	788.9954223632813	1093.322998046875	786.7294311523438	461.8359985351563	1092.030395507813	701.7621459960938	110.6621475219727	1397.58056640625	720.0424194335938	116.6363830566406	1314.711181640625	858.2943115234375	1060.392700195313	1337.519653320313	764.1353759765625	966.5565795898438	1385.098388671875	627.5205078125	42.59763336181641	1360.087280273438	658.3867797851563	58.95679473876953	1403.2783203125	638.9557495117188	90.76203918457031	1359.628173828125	732.3978271484375	491.4872436523438	1397.775024414063	795.2764282226563	1135.571533203125	1358.82470703125	735.4857788085938	553.27685546875	1387.0400390625	731.976318359375	540.0850830078125	1270.881713867188	850.1922607421875	64.40927886962891	1319.660034179688	855.09130859375	73.13117980957031	1362.040283203125	829.7294921875	56.37057876586914	1427.127075195313	698.53369140625	1097.868774414063	1258.478881835938	702.3734130859375	190.5578460693359	1400.774291992188	660.9721069335938	194.3737030029297	1364.861206054688	698.84033203125	271.296630859375	1410.748291015625	659.1243286132813	273.9951171875	1373.758056640625	735.337158203125	651.1849365234375	1396.717407226563	681.1363525390625	650.6058959960938	1346.049926757813	727.6317138671875	761.7783813476563	1399.15576171875	678.9685668945313	760.6062622070313	1348.475341796875	781.7150268554688	462.502197265625	1343.839721679688	
135	0.8933333333333334	705.1222534179688	108.8250122070313	1050.994506835938	725.5980834960938	119.2991256713867	1129.094360351563	879.9813232421875	1066.978759765625	1126.911865234375	802.0547485351563	965.272705078125	1056.941772460938	633.3177490234375	43.05382919311523	1085.139892578125	663.423583984375	60.41165161132813	1046.800170898438	641.8375854492188	90.55684661865234	1088.858276367188	735.3677368164063	490.4660034179688	1040.030639648438	818.7275390625	1134.874389648438	1090.214599609375	752.9816284179688	550.5425415039063	1052.372924804688	733.3143310546875	539.8544311523438	1162.290893554688	854.9646606445313	62.80258178710938	1133.47509765625	861.0469970703125	69.67066955566406	1088.64453125	827.1065673828125	56.57164001464844	1026.716552734375	702.2926635742188	1099.056640625	1181.74609375	713.6470336914063	191.6830444335938	1043.619140625	670.6961669921875	190.8474884033203	1071.945190429688	709.2973022460938	271.5006408691406	1031.505615234375	665.9573364257813	274.9268188476563	1063.328369140625	744.5323486328125	675.5191040039063	1043.296508789063	691.35693359375	678.3710327148438	1093.904296875	742.6316528320313	786.2589111328125	1040.401733398438	697.7653198242188	788.9951171875	1093.320434570313	786.7313842773438	461.8441772460938	1092.028930664063	701.7659912109375	110.6609802246094	1397.568969726563	720.0399780273438	116.6363296508789	1314.712646484375	858.302978515625	1060.390869140625	1337.510864257813	764.144775390625	966.555908203125	1385.0732421875	627.5224609375	42.59710311889648	1360.09423828125	658.3820190429688	58.96281433105469	1403.290405273438	638.9481201171875	90.76451110839844	1359.630249023438	732.3948974609375	491.4986572265625	1397.759033203125	795.2936401367188	1135.573486328125	1358.818603515625	735.493408203125	553.2825317382813	1387.035522460938	731.9873657226563	540.0872192382813	1270.87255859375	850.1971435546875	64.41262817382813	1319.6630859375	855.091064453125	73.13397216796875	1362.046997070313	829.7246704101563	56.37457275390625	1427.126708984375	698.5534057617188	1097.866943359375	1258.477294921875	702.3682250976563	190.5636138916016	1400.7744140625	660.975341796875	194.3764343261719	1364.854736328125	698.8396606445313	271.296142578125	1410.744018554688	659.1203002929688	273.9939575195313	1373.7529296875	735.335205078125	651.1817626953125	1396.70263671875	681.1381225585938	650.604736328125	1346.033081054688	727.6320190429688	761.7698364257813	1399.142578125	678.97216796875	760.6056518554688	1348.450561523438	781.71533203125	462.5013732910156	1343.844604492188	
